<svg id="Group_1" data-name="Group 1" xmlns="http://www.w3.org/2000/svg" width="80.899" height="76.136" viewBox="0 0 80.899 76.136">
  <defs>
    <style>
      .cls-1 {
        fill: #fff;
      }

      .cls-2 {
        fill: #272525;
      }
    </style>
  </defs>
  <path id="Path_1" data-name="Path 1" class="cls-1" d="M751.459,144.5a6.583,6.583,0,0,0-.472-1.948c-1.939,1.076-2.472,4.022-2.485,6.034a12.8,12.8,0,0,0,.335,3.132c.253,1.017.546,2.051,1.754,2.44a2.786,2.786,0,0,0,1.174.134,60.245,60.245,0,0,0-.027-6.809Q751.639,145.992,751.459,144.5Z" transform="translate(-685.713 -139.598)"/>
  <path id="Path_2" data-name="Path 2" class="cls-1" d="M492.178,154.934a10.685,10.685,0,0,0-1.975-3.5c-.283-.323-.74-.631-1.1-.97-.626,1.474-.492,3.82-.219,6.012,0,0,0,.007.007.011a37.522,37.522,0,0,1,1.849,6.4C494.1,162.349,492.975,157.168,492.178,154.934Z" transform="translate(-484.565 -145.717)"/>
  <path id="Path_3" data-name="Path 3" class="cls-1" d="M611.183,288.335a22.873,22.873,0,0,0,8.844.793c4.009-.373,6.5-2.447,6.707-6.587a20.561,20.561,0,0,0-1.4-7.788c-1.269-3.536-6.292-12.743-11.268-11.882a.365.365,0,0,1-.279.279c-3.072.725-3.528,4.791-4.187,7.361-.835,3.258-1.736,6.5-2.558,9.759-.483,1.915-.95,4.009.291,5.733A7.215,7.215,0,0,0,611.183,288.335Zm.9-9.908a2.481,2.481,0,0,0,3.488-.751,4.578,4.578,0,0,0,.684-2.142q-2.014-1.972-4.017-3.954a.885.885,0,0,1,.5-1.488.627.627,0,0,1,.573-.325l.65-.084a.335.335,0,0,1,.214.016c1.739-.155,3.494-.237,5.233-.3a.878.878,0,0,1,.839,1.1,13.938,13.938,0,0,1-1.986,4.213,7.976,7.976,0,0,0,.513,1.877c.729,1.674,2.82,1.383,4.336,1.338a.731.731,0,0,1,.193,1.429c-1.752.37-4,.447-5.341-.963a2.851,2.851,0,0,1-.475-.674,4.291,4.291,0,0,1-1.335,1.781c-1.447,1.12-3.668,1.283-4.776-.365C611.1,278.724,611.669,278.112,612.086,278.427Z" transform="translate(-575.826 -232.688)"/>
  <path id="Path_4" data-name="Path 4" class="cls-1" d="M485.837,413.488c-.144.168-.277.341-.417.511.077.044.151.089.229.132" transform="translate(-482.063 -349.324)"/>
  <path id="Path_5" data-name="Path 5" class="cls-2" d="M551.46,186.895c-.016-7.15-.5-14.472-2.715-21.253a40.615,40.615,0,0,0-5.578-10.67,41.7,41.7,0,0,1-3.495-5.612,13.819,13.819,0,0,1-1.24-4.3,56.275,56.275,0,0,0-.409-11.682c-.3-2.2-.881-4.044-3.459-3.91-5.212.267-9.366,5.846-11.474,10.252a.934.934,0,0,0-.348-.158,58.387,58.387,0,0,0-31.318,1.317.763.763,0,0,0-.269.158,31.782,31.782,0,0,0-6.163-6.343c-2.191-1.688-4.974-3.752-7.9-3.682-6.154.151-4.658,10.507-2.462,13.8a.44.44,0,0,0,.158.138,21.209,21.209,0,0,1-.563,10.03,55.679,55.679,0,0,0-2.379,11.9c-.7,8.329.185,16.862,1.471,25.112a.237.237,0,0,0-.025.334c.029.041.063.079.093.12l.007.032c-.018.014-.036.018-.052.032-.269.255-.517.522-.773.786a11.016,11.016,0,0,1-1.276-1.05.433.433,0,0,0-.612.612,12.321,12.321,0,0,0,1.229,1.121C509.389,223.758,551.46,186.895,551.46,186.895ZM475.095,134.2c.366.341.82.648,1.1.971a10.7,10.7,0,0,1,1.974,3.5c.8,2.234,1.918,7.414-1.441,7.945a37.412,37.412,0,0,0-1.85-6.393s0-.007-.007-.011C474.6,138.024,474.469,135.679,475.095,134.2Zm61.519,9.953a2.792,2.792,0,0,1-1.175-.133c-1.206-.389-1.5-1.423-1.753-2.44a12.821,12.821,0,0,1-.337-3.133c.014-2.011.547-4.956,2.485-6.032a6.538,6.538,0,0,1,.472,1.947q.183,1.488.28,2.982A60.035,60.035,0,0,1,536.614,144.157ZM475.111,193a.672.672,0,0,0,.029-.246c-.965-9.1-2.379-18.149-1.378-27.321.506-4.611,2.218-8.828,3.018-13.347a15.034,15.034,0,0,0,.124-4.2c2.9-.49,3.526-3.732,3.115-6.357a15.446,15.446,0,0,0-1.561-4.855,12.923,12.923,0,0,0-2.883-3.244c.782-.872,2.146-1.035,4.441.081,4.082,1.981,7.482,5.478,10.109,9.1a.947.947,0,0,0,1.7-.4,68.5,68.5,0,0,1,30.439-.892.9.9,0,0,0,.639-.108.65.65,0,0,0,1.066-.1c2.358-3.676,4.73-7.995,9.158-9.477a2.183,2.183,0,0,1,2.227.136,2.92,2.92,0,0,0-.7.319,5.664,5.664,0,0,0-1.362,1.832,10.931,10.931,0,0,0-1,5.747c.113,1.615.325,3.752,1.672,4.859a4.013,4.013,0,0,0,2.607.881.761.761,0,0,0,.4.7,17.36,17.36,0,0,0,1.83,5.3c2.157,4.143,5.3,7.6,7.136,11.95,3.443,8.171,3.176,14.547,3.377,23.263,0,0-46.918,31.919-74.971,7.009-.145.167-.278.341-.418.511.077.043.151.09.228.133" transform="translate(-470.561 -129.46)"/>
  <path id="Path_6" data-name="Path 6" class="cls-2" d="M616.8,285.485c8.051-1.755,6.326-11.8,3.961-17.445-2-4.763-9.25-15.919-15.354-9.755a.528.528,0,0,0-.156.5,10.5,10.5,0,0,0-1.9,3.875c-.827,2.705-1.523,5.458-2.265,8.188a41.307,41.307,0,0,0-1.7,6.934C598.64,286.122,611.218,286.7,616.8,285.485ZM601.479,275.36c.823-3.26,1.723-6.5,2.558-9.759.659-2.57,1.115-6.635,4.187-7.36a.365.365,0,0,0,.279-.279c4.975-.861,10,8.346,11.268,11.882a20.56,20.56,0,0,1,1.395,7.788c-.2,4.14-2.7,6.214-6.707,6.587a22.873,22.873,0,0,1-8.844-.793,7.215,7.215,0,0,1-3.843-2.333C600.529,279.369,601,277.275,601.479,275.36Z" transform="translate(-570.257 -227.78)"/>
  <path id="Path_7" data-name="Path 7" class="cls-2" d="M632.447,302.076a4.29,4.29,0,0,0,1.335-1.781,2.852,2.852,0,0,0,.475.674c1.337,1.41,3.588,1.333,5.341.963a.731.731,0,0,0-.193-1.429c-1.516.046-3.607.336-4.336-1.338a7.983,7.983,0,0,1-.513-1.877,13.938,13.938,0,0,0,1.986-4.212.878.878,0,0,0-.839-1.1c-1.74.061-3.495.143-5.233.3a.335.335,0,0,0-.214-.016l-.65.084a.627.627,0,0,0-.572.325.885.885,0,0,0-.5,1.488q2.007,1.978,4.017,3.954a4.578,4.578,0,0,1-.684,2.142,2.481,2.481,0,0,1-3.488.751c-.417-.316-.989.3-.711.711C628.778,303.359,631,303.2,632.447,302.076Z" transform="translate(-592.122 -255.262)"/>
  <path id="Path_8" data-name="Path 8" class="cls-2" d="M700.853,231.935a2.01,2.01,0,0,0,1.983-1.982q-.006-.133-.012-.266a1.97,1.97,0,0,0-3.94,0q-.006.133-.012.266A2,2,0,0,0,700.853,231.935Z" transform="translate(-647.293 -205.519)"/>
  <path id="Path_9" data-name="Path 9" class="cls-2" d="M576.12,243.286c2.615,0,2.62-4.065,0-4.065S573.5,243.286,576.12,243.286Z" transform="translate(-550.753 -214.425)"/>
  <path id="Path_10" data-name="Path 10" class="cls-2" d="M638.542,393.35a26.085,26.085,0,0,1-13.871-1.217c-.521-.2-.733.626-.228.828a24.924,24.924,0,0,0,14.373,1.379C639.468,394.2,639.184,393.241,638.542,393.35Z" transform="translate(-589.457 -332.77)"/>
  <path id="Path_11" data-name="Path 11" class="cls-2" d="M649.262,410.845a12.828,12.828,0,0,1-5.337.023c-.526-.107-.754.691-.223.81a14.417,14.417,0,0,0,5.82.109C650.135,411.675,649.88,410.712,649.262,410.845Z" transform="translate(-604.355 -347.268)"/>
</svg>
