<svg id="Group_21" data-name="Group 21" xmlns="http://www.w3.org/2000/svg" width="71.321" height="71.434" viewBox="0 0 71.321 71.434">
  <defs>
    <style>
      .cls-1 {
        fill: #5d8da7;
      }
    </style>
  </defs>
  <path id="Path_30" data-name="Path 30" class="cls-1" d="M880.332,230.694c3.717-1.784,7.436-2.738,10.655-1.993-.008-.153-.018-.306-.029-.458-.409-2.265-.792-4.575-1.062-6.56-.026-.1-.054-.2-.081-.3a42.214,42.214,0,0,0-14.3,6.575q-1-.645-1.966-1.329c4.31-4.351,9.545-8.636,14.557-10.147a35.778,35.778,0,0,0-7.6-11.119c-3.547,3-9.941,5.277-9.517,11.975-4.7-6.464,1.376-10.533,4.428-16.177a35.62,35.62,0,0,0-6.7-3.585,11.045,11.045,0,0,1-5.264,5.373,10.64,10.64,0,0,0,.581-6.9,36,36,0,0,0-14.173-.655,12.394,12.394,0,0,1-3.059,9.812,16.485,16.485,0,0,0-3.2-8.256,35.565,35.565,0,0,0-7.52,3.652c2.42,7.337,9.3,12.328,4.121,20.66,0-5.082-8.167-9.457-11.421-14.46a35.745,35.745,0,0,0-6.228,9.681c5.012,1.512,10.247,5.8,14.557,10.148q-.969.682-1.966,1.329a42.213,42.213,0,0,0-14.3-6.575c-.027.1-.055.2-.081.3-.271,1.985-.654,4.295-1.062,6.56-.01.153-.02.306-.029.459,3.22-.745,6.938.209,10.655,1.993-3.717,1.784-7.436,2.738-10.655,1.993.009.153.019.306.029.458.409,2.265.792,4.575,1.062,6.56.026.1.054.2.081.3a42.218,42.218,0,0,0,14.3-6.575q1,.645,1.966,1.329c-4.31,4.351-9.545,8.636-14.557,10.147a35.779,35.779,0,0,0,7.6,11.119c3.547-3,9.94-5.277,9.517-11.975,4.7,6.464-1.376,10.533-4.428,16.178a35.652,35.652,0,0,0,6.7,3.585,11.046,11.046,0,0,1,5.264-5.374,10.644,10.644,0,0,0-.581,6.9,36.016,36.016,0,0,0,14.173.655,12.394,12.394,0,0,1,3.059-9.812,16.483,16.483,0,0,0,3.2,8.256,35.561,35.561,0,0,0,7.52-3.652c-2.421-7.337-9.3-12.328-4.121-20.661,0,5.082,8.167,9.457,11.421,14.461a35.747,35.747,0,0,0,6.228-9.681c-5.012-1.512-10.247-5.8-14.557-10.148q.969-.682,1.966-1.329a42.218,42.218,0,0,0,14.3,6.575c.027-.1.055-.2.081-.3.271-1.984.654-4.294,1.062-6.558.01-.153.021-.306.029-.459C887.768,233.432,884.05,232.478,880.332,230.694Zm-13.114,3.336c-.809,1.443-5.528.159-5.528.159,1.619,2.45,2.782,5.76,2.585,7.357a14.967,14.967,0,0,1-1.551,4.892,10.893,10.893,0,0,1-3.221,3.181c-1.115.656-1.742.459-1.392-.437s-.133-1.15-1.074-.561a3.537,3.537,0,0,1-3.42,0c-.941-.588-1.424-.335-1.074.561s-.277,1.094-1.392.438a10.9,10.9,0,0,1-3.221-3.181,14.954,14.954,0,0,1-1.551-4.892c-.2-1.6.967-4.908,2.585-7.357,0,0-4.719,1.284-5.528-.159a15.86,15.86,0,0,1-1.193-7.2,22.86,22.86,0,0,1,2.267-8.153c1.094-1.969,3.975-2.726,6.4-1.682a12.845,12.845,0,0,0,8.829,0c2.428-1.044,5.309-.286,6.4,1.682a22.862,22.862,0,0,1,2.267,8.153A15.86,15.86,0,0,1,867.218,234.03Z" transform="translate(-819.666 -194.977)"/>
  <path id="Path_31" data-name="Path 31" class="cls-1" d="M980.574,403.793a7.879,7.879,0,0,1,1.716-2.154,2.159,2.159,0,0,0,.872-1.477c.007-.476-.915-.819-2.048-.763s-2.988.056-4.121,0-2.055.287-2.048.763a2.16,2.16,0,0,0,.872,1.477,7.886,7.886,0,0,1,1.716,2.154c.471.847-.5,2.223-2.147,3.058s-3.005,1.52-3.007,1.524,1.5-.447,3.336-1a13.611,13.611,0,0,1,6.677,0c1.836.554,3.338,1.005,3.336,1s-1.355-.69-3.007-1.524S980.1,404.64,980.574,403.793Z" transform="translate(-943.393 -360.593)"/>
  <path id="Path_32" data-name="Path 32" class="cls-1" d="M1033.736,343.856a4.121,4.121,0,0,0-2.923-.378,3.767,3.767,0,0,0-2.347,1.949,6.912,6.912,0,0,0-.02,3.639c.317,1.17.514,1.2.437.06a7.346,7.346,0,0,1,.219-2.744c.2-.372.445-.848.756-.537.784.784,3.113-1.094,4.414-1.094C1034.626,344.751,1034.381,344.3,1033.736,343.856Z" transform="translate(-988.63 -315.202)"/>
  <path id="Path_33" data-name="Path 33" class="cls-1" d="M958.676,345.844c.311-.311.559.165.755.537a7.333,7.333,0,0,1,.219,2.744c-.076,1.137.121,1.11.438-.06a6.911,6.911,0,0,0-.02-3.639,3.766,3.766,0,0,0-2.347-1.949,4.12,4.12,0,0,0-2.923.378c-.645.449-.889.895-.537.895C955.563,344.751,957.892,346.628,958.676,345.844Z" transform="translate(-928.583 -315.202)"/>
</svg>
