<svg id="Group_24" data-name="Group 24" xmlns="http://www.w3.org/2000/svg" width="59.031" height="71.257" viewBox="0 0 59.031 71.257">
  <defs>
    <style>
      .cls-1 {
        fill: #b771b7;
      }
    </style>
  </defs>
  <path id="Path_40" data-name="Path 40" class="cls-1" d="M282.656,1517.81a16.765,16.765,0,0,1,0-23.709l11.854-11.854c4.962-4.962,14.773-4.591,20.871,1.507a29.527,29.527,0,0,0-35.221-4.93C266.9,1486.888,272.161,1507.315,282.656,1517.81Z" transform="translate(-264.995 -1475.108)"/>
  <path id="Path_41" data-name="Path 41" class="cls-1" d="M280.434,1531.051a16.765,16.765,0,0,1-23.709,0c-10.495-10.495-15.755-30.921-2.5-38.987a29.539,29.539,0,0,0-6.52,46.671C251.255,1542.28,267,1544.485,280.434,1531.051Z" transform="translate(-239.064 -1488.349)"/>
  <path id="Path_42" data-name="Path 42" class="cls-1" d="M394.653,1496.993c-6.1-6.1-15.909-6.468-20.871-1.506l11.854,11.854c.114.114.225.229.334.344,8.528,8.96,11.131,28.6-1.5,41.228l10.179-10.179A29.515,29.515,0,0,0,394.653,1496.993Z" transform="translate(-344.266 -1488.348)"/>
  <path id="Path_43" data-name="Path 43" class="cls-1" d="M311.582,1563.369a16.765,16.765,0,0,1-.334,23.365c-13.434,13.434-29.18,11.229-32.725,7.684l20.871,20.871,10.692-10.692C322.714,1591.969,320.11,1572.329,311.582,1563.369Z" transform="translate(-269.878 -1544.032)"/>
</svg>
