<svg id="Logo" xmlns="http://www.w3.org/2000/svg" width="71.296" height="71.296" viewBox="0 0 71.296 71.296">
  <defs>
    <style>
      .cls-1 {
        fill: #246e81;
      }
    </style>
  </defs>
  <g id="Group_18" data-name="Group 18" transform="translate(31.604 30.394)">
    <path id="Path_12" data-name="Path 12" class="cls-1" d="M405.778,415.435a2.725,2.725,0,0,0,2.58-3.62l7.208-6.631a7.155,7.155,0,0,1-1.481-1.606l-7.206,6.629a2.655,2.655,0,0,0-1.456-.208l-2.8-4.643a4.919,4.919,0,0,1-1.87,1.13l2.8,4.64a2.725,2.725,0,0,0-.285,2.65l-9.234,9.8a7.162,7.162,0,0,1,1.616,1.471l9.21-9.772A2.716,2.716,0,0,0,405.778,415.435Z" transform="translate(-385.209 -393.509)"/>
    <path id="Path_13" data-name="Path 13" class="cls-1" d="M420.234,470.168a2.73,2.73,0,0,0-.5.048l-1.367-2.014a4.93,4.93,0,0,1-1.806,1.228l1.367,2.013a2.714,2.714,0,0,0-.42,1.4l-12.326,5.106a7.059,7.059,0,0,1,.837,2.018l12.325-5.105a2.73,2.73,0,1,0,1.892-4.7Z" transform="translate(-394.204 -445.658)"/>
    <path id="Path_14" data-name="Path 14" class="cls-1" d="M353.237,512.379a4.915,4.915,0,1,0,4.915,4.915A4.921,4.921,0,0,0,353.237,512.379Zm0,7.645a2.73,2.73,0,1,1,2.731-2.731A2.731,2.731,0,0,1,353.237,520.024Z" transform="translate(-348.322 -481.307)"/>
    <path id="Path_15" data-name="Path 15" class="cls-1" d="M461.1,352.629a4.9,4.9,0,0,0-3.473,1.44l-4.215-2.651a7.117,7.117,0,0,1-1.166,1.847l4.218,2.652a4.888,4.888,0,0,0-.242,1.041l-11.238,1.182a4.855,4.855,0,0,1,.229,2.172l11.238-1.183a4.914,4.914,0,1,0,4.65-6.5Zm0,7.645a2.731,2.731,0,1,1,2.731-2.731A2.731,2.731,0,0,1,461.1,360.275Z" transform="translate(-426.323 -351.419)"/>
    <path id="Path_16" data-name="Path 16" class="cls-1" d="M487.436,424.757a4.887,4.887,0,0,1,2.017.838l4.23-10.211a7.056,7.056,0,0,1-2.018-.837Z" transform="translate(-460.581 -402.361)"/>
    <path id="Path_17" data-name="Path 17" class="cls-1" d="M367.437,447.7a7.093,7.093,0,0,1,.175,1.563c0,.208-.011.413-.028.617l12.025-.813a4.905,4.905,0,0,1-.148-2.179Z" transform="translate(-363.747 -428.454)"/>
  </g>
  <g id="Group_19" data-name="Group 19" transform="translate(0 22.076)">
    <path id="Path_18" data-name="Path 18" class="cls-1" d="M203.462,362.6a4.915,4.915,0,1,0-4.915,4.915A4.92,4.92,0,0,0,203.462,362.6Zm-4.915,2.73a2.73,2.73,0,1,1,2.731-2.731A2.731,2.731,0,0,1,198.547,365.334Z" transform="translate(-193.632 -348.16)"/>
    <path id="Path_19" data-name="Path 19" class="cls-1" d="M385.533,321.388l1.692-2.868a4.915,4.915,0,1,0-2.809-7.055l-10.92-3.137a7.042,7.042,0,0,1-.6,2.1l10.919,3.136c-.005.091-.008.182-.008.273a4.9,4.9,0,0,0,1.541,3.569l-1.692,2.868A4.918,4.918,0,0,1,385.533,321.388Zm3.186-10.281a2.73,2.73,0,1,1-2.731,2.73A2.731,2.731,0,0,1,388.719,311.107Z" transform="translate(-338.288 -308.328)"/>
    <path id="Path_20" data-name="Path 20" class="cls-1" d="M321.794,370.888c0,.07.005.141.005.212a4.889,4.889,0,0,1-.4,1.937l14.3,2.616c0-.07-.005-.141-.005-.212a4.886,4.886,0,0,1,.4-1.937Z" transform="translate(-296.736 -358.811)"/>
    <path id="Path_21" data-name="Path 21" class="cls-1" d="M266.16,331.816l-3.074,5.052a2.7,2.7,0,0,0-3,1.972l-5.812.822a7.073,7.073,0,0,1,.307,2.064c0,.033,0,.066,0,.1L260.4,341a2.728,2.728,0,1,0,4.555-3l3.072-5.047A7.109,7.109,0,0,1,266.16,331.816Z" transform="translate(-242.572 -327.282)"/>
    <path id="Path_22" data-name="Path 22" class="cls-1" d="M234.893,426.873l-5.106-12.326a7.058,7.058,0,0,1-2.018.837l5.105,12.325a2.73,2.73,0,1,0,2.018-.836Z" transform="translate(-221.18 -394.042)"/>
    <path id="Path_23" data-name="Path 23" class="cls-1" d="M254.336,400.833l4.385-2.177a4.9,4.9,0,0,0,5.108,1.63l2.567,4.784a7.093,7.093,0,0,1,1.923-1.035l-2.568-4.784a4.906,4.906,0,0,0,1.294-5.629l11.339-8.215a2.733,2.733,0,1,0-1.283-1.768l-11.34,8.216a4.893,4.893,0,0,0-3.237-1.221,4.955,4.955,0,0,0-.7.051l-3.038-7.891a4.888,4.888,0,0,1-2.038.786l3.038,7.891a4.921,4.921,0,0,0-.615.491l-11.936-8.069a7.122,7.122,0,0,1-1.226,1.808l11.936,8.069a4.891,4.891,0,0,0-.2,2.931l-4.385,2.177A4.9,4.9,0,0,1,254.336,400.833Zm8.189-8.015a2.731,2.731,0,1,1-2.731,2.731A2.73,2.73,0,0,1,262.525,392.817Z" transform="translate(-235.897 -366.426)"/>
    <path id="Path_24" data-name="Path 24" class="cls-1" d="M285.154,498.82l10.211,4.23a7.06,7.06,0,0,1,.837-2.018l-10.21-4.229A4.889,4.889,0,0,1,285.154,498.82Z" transform="translate(-267.486 -460.419)"/>
  </g>
  <g id="Group_20" data-name="Group 20" transform="translate(6.59)">
    <path id="Path_25" data-name="Path 25" class="cls-1" d="M416.228,241.366l-10.211-4.23a7.057,7.057,0,0,1-.837,2.018l10.21,4.229A4.887,4.887,0,0,1,416.228,241.366Z" transform="translate(-369.616 -230.546)"/>
    <path id="Path_26" data-name="Path 26" class="cls-1" d="M269.533,266.088a5.1,5.1,0,0,0-4.612-2.864,5,5,0,0,0-5.077,4.915,4.75,4.75,0,0,0,.325,1.728L246.334,278.7a7.107,7.107,0,0,1,1.241,1.825l13.839-8.841a5.195,5.195,0,0,0,5.97.746L277,282.818a5.059,5.059,0,0,1,1.679-1.459l-9.617-10.383a4.782,4.782,0,0,0,.932-2.749l21.254-4.31a2.754,2.754,0,0,0,.226.272l-1.621,3.5a7.419,7.419,0,0,1,2.058.9l1.608-3.472,5.261,12.3a7.426,7.426,0,0,1,2.085-.837l-5.274-12.325a2.675,2.675,0,0,0,.79-1.892,2.83,2.83,0,0,0-5.576-.58Zm-7.433,2.051a2.822,2.822,0,1,1,2.821,2.731A2.777,2.777,0,0,1,262.1,268.139Z" transform="translate(-242.75 -248.692)"/>
    <path id="Path_27" data-name="Path 27" class="cls-1" d="M252.986,246.938a2.721,2.721,0,0,0,1.919-.789l5.667,2.26a7.058,7.058,0,0,1,.811-2.028l-5.5-2.192,12.154-5.034a7.057,7.057,0,0,1-.837-2.018l-12.325,5.105a2.73,2.73,0,1,0-1.892,4.7Z" transform="translate(-245.914 -230.546)"/>
    <path id="Path_28" data-name="Path 28" class="cls-1" d="M350.26,211.821l-1.723,3.788a7.069,7.069,0,0,1,1.987.907l1.723-3.787a4.928,4.928,0,1,0-1.987-.908Zm2.977-6.638a2.73,2.73,0,1,1-2.731,2.73A2.73,2.73,0,0,1,353.237,205.183Z" transform="translate(-324.179 -202.999)"/>
    <path id="Path_29" data-name="Path 29" class="cls-1" d="M234.017,295.36a4.888,4.888,0,0,1-2.017-.838l-4.23,10.211a7.059,7.059,0,0,1,2.018.837Z" transform="translate(-227.77 -276.854)"/>
  </g>
</svg>
