<svg id="Group_22" data-name="Group 22" xmlns="http://www.w3.org/2000/svg" width="69.56" height="71.589" viewBox="0 0 69.56 71.589">
  <defs>
    <style>
      .cls-1 {
        fill: #f74a4a;
      }
    </style>
  </defs>
  <path id="Path_34" data-name="Path 34" class="cls-1" d="M1456.4,261.723a5.381,5.381,0,0,1-5.6-5.511c0-2,1.259-4.639,3.842-8.057q-.437-.519-.911-1.045c-2.536.974-9.139,3.336-13.524,3.336a25.916,25.916,0,0,1-17.274-6.339l-1.295-1.173,1.295-1.172a49.6,49.6,0,0,1,10.1-6.854c-4.774-6.226-8.114-15.107-8.114-21.894v-1.581h1.582c5.172,0,12.153,2.034,17.816,5.095.419-11.761,6.974-20.725,10.933-25.1l1.172-1.295,1.172,1.295c3.959,4.371,10.513,13.335,10.932,25.1,5.662-3.061,12.644-5.095,17.816-5.095h1.582v1.581c0,6.787-3.34,15.668-8.114,21.894a49.582,49.582,0,0,1,10.1,6.854l1.295,1.172-1.295,1.173a25.916,25.916,0,0,1-17.273,6.339h0a25.725,25.725,0,0,1-13.074-3.308c-.256.291-.556.639-.882,1.029,2.236,3.068,3.368,5.77,3.368,8.046A5.407,5.407,0,0,1,1456.4,261.723Zm.248-10.948c-1.7,2.372-2.681,4.34-2.681,5.437a2.251,2.251,0,0,0,2.433,2.348,2.33,2.33,0,0,0,2.482-2.348C1458.883,254.794,1458.116,252.936,1456.648,250.775Zm-30.183-7.86a23.165,23.165,0,0,0,13.746,4.368c4.78,0,13.264-3.47,13.349-3.505l1.006-.414.747.791q.693.734,1.329,1.467l.032-.04.023.029c.814-.952,1.39-1.562,1.424-1.6l.912-.963,1.108.73a22.273,22.273,0,0,0,12.494,3.5,23.163,23.163,0,0,0,13.746-4.368,45.678,45.678,0,0,0-8.69-5.523c-3.219,3.367-6.6,5.139-9.829,5.139a5.255,5.255,0,0,1-5.1-2.93,4.427,4.427,0,0,1,1.146-4.851c2.883-2.884,7.316-3.3,12.917-1.165a37.42,37.42,0,0,0,7.865-18.917,40.862,40.862,0,0,0-16.136,5.484c0,5.361-.243,9.6-2.344,11.7a5.224,5.224,0,0,1-3.685,1.6,4.316,4.316,0,0,1-3.112-1.282,4.759,4.759,0,0,1-1.3-3.419c0-3.537,2.51-7.1,7.273-10.332v-.014q0-.356,0-.7c0-7.728-3.248-15.951-8.963-22.81-5.715,6.859-8.963,15.082-8.963,22.81q0,.345,0,.7h0v.014c4.762,3.235,7.273,6.8,7.273,10.332a4.415,4.415,0,0,1-4.414,4.7,5.223,5.223,0,0,1-3.685-1.6c-2.1-2.1-2.349-6.343-2.344-11.7a40.863,40.863,0,0,0-16.136-5.484,37.419,37.419,0,0,0,7.865,18.917c5.6-2.136,10.034-1.718,12.917,1.165a4.427,4.427,0,0,1,1.146,4.851,5.255,5.255,0,0,1-5.1,2.93c-3.23,0-6.611-1.772-9.829-5.139A45.668,45.668,0,0,0,1426.465,242.915Zm43.938-7.52a5.7,5.7,0,0,0-4.255,1.592,1.314,1.314,0,0,0-.46,1.4,2.266,2.266,0,0,0,2.174.977c2.037,0,4.339-1.141,6.621-3.254A13.676,13.676,0,0,0,1470.4,235.4Zm-32.04.718c2.282,2.113,4.584,3.254,6.621,3.254a2.266,2.266,0,0,0,2.173-.977,1.313,1.313,0,0,0-.46-1.4,5.7,5.7,0,0,0-4.255-1.592A13.673,13.673,0,0,0,1438.363,236.114Zm27.013-13.743c-2.664,2.173-4.1,4.389-4.1,6.389a1.681,1.681,0,0,0,.4,1.2,1.172,1.172,0,0,0,.854.334,2.1,2.1,0,0,0,1.448-.678C1465.037,228.559,1465.312,225.33,1465.376,222.37Zm-17.907,0c.064,2.959.339,6.188,1.4,7.249a2.093,2.093,0,0,0,1.448.678c.784,0,1.251-.575,1.251-1.538C1451.568,226.759,1450.133,224.543,1447.469,222.37Z" transform="translate(-1421.643 -190.135)"/>
</svg>
