<svg xmlns="http://www.w3.org/2000/svg" width="72.041" height="52.277" viewBox="0 0 72.041 52.277">
  <defs>
    <style>
      .cls-1 {
        fill: #652780;
      }
    </style>
  </defs>
  <g id="Group_23" data-name="Group 23" transform="translate(0)">
    <path id="Path_35" data-name="Path 35" class="cls-1" d="M855.636,926.285a18.158,18.158,0,1,1,.072-35.045,23.879,23.879,0,0,1,5.309-3.673,26,26,0,0,0-37.729,33.947l-3.622,13.516,13.516-3.622a26.014,26.014,0,0,0,27.763-1.419A23.891,23.891,0,0,1,855.636,926.285Z" transform="translate(-819.666 -882.754)"/>
    <path id="Path_36" data-name="Path 36" class="cls-1" d="M1028,955.283l-2.751-10.268a19.746,19.746,0,1,0-7.517,7.517Zm-23.724-6.168a13.794,13.794,0,1,1,13.794-13.794A13.794,13.794,0,0,1,1004.273,949.116Z" transform="translate(-955.956 -909.278)"/>
    <path id="Path_37" data-name="Path 37" class="cls-1" d="M1105.008,1010.968a1.754,1.754,0,1,0-1.754,1.754A1.754,1.754,0,0,0,1105.008,1010.968Z" transform="translate(-1047.465 -984.968)"/>
    <path id="Path_38" data-name="Path 38" class="cls-1" d="M1024.267,1006.836a2.734,2.734,0,1,0-2.734,2.734A2.734,2.734,0,0,0,1024.267,1006.836Z" transform="translate(-980.62 -980.837)"/>
    <path id="Path_39" data-name="Path 39" class="cls-1" d="M927.309,1000.964a4.127,4.127,0,1,0-4.127,4.127A4.127,4.127,0,0,0,927.309,1000.964Z" transform="translate(-900 -974.964)"/>
  </g>
</svg>
