<svg xmlns="http://www.w3.org/2000/svg" width="20" height="20" viewBox="0 0 20 20">
  <defs>
    <style>
      .cls-1 {
        fill: #666;
      }
    </style>
  </defs>
  <path id="dribbble-brands" class="cls-1" d="M18,8A10,10,0,1,0,28,18,10.014,10.014,0,0,0,18,8Zm6.577,4.613A8.479,8.479,0,0,1,26.505,17.9a19.964,19.964,0,0,0-5.948-.275c-.232-.566-.451-1.064-.751-1.678a11.4,11.4,0,0,0,4.77-3.368Zm-.915-.989a9.644,9.644,0,0,1-4.476,3.085,45.335,45.335,0,0,0-3.187-5,8.548,8.548,0,0,1,7.665,1.915Zm-9.294-1.341a54.553,54.553,0,0,1,3.167,4.94,31.885,31.885,0,0,1-7.9,1.041A8.577,8.577,0,0,1,14.367,10.283ZM9.458,18.012c0-.087,0-.174,0-.261a31.505,31.505,0,0,0,8.778-1.216c.245.479.478.965.692,1.45a13.224,13.224,0,0,0-7.278,5.738A8.5,8.5,0,0,1,9.458,18.012Zm3.3,6.738A12.027,12.027,0,0,1,19.515,19.4a35.577,35.577,0,0,1,1.822,6.476,8.528,8.528,0,0,1-8.581-1.124Zm10.016.342A36.846,36.846,0,0,0,21.114,19a12.519,12.519,0,0,1,5.319.365,8.409,8.409,0,0,1-3.661,5.69Z" transform="translate(-8 -8)"/>
</svg>
